<svg width="1200" height="720" viewBox="0 0 1200 720" fill="none" xmlns="http://www.w3.org/2000/svg">
<rect width="1200" height="720" rx="32" fill="#0B1228"/>
<rect x="36" y="36" width="1128" height="72" rx="16" fill="#1E293B"/>
<circle cx="90" cy="72" r="14" fill="#6366F1"/>
<rect x="122" y="58" width="250" height="14" rx="7" fill="#A5B4FC"/>
<rect x="122" y="78" width="180" height="10" rx="5" fill="#64748B"/>
<rect x="36" y="136" width="560" height="548" rx="24" fill="#111827" stroke="#334155"/>
<rect x="64" y="174" width="504" height="82" rx="16" fill="#1E1B4B"/>
<rect x="84" y="194" width="170" height="14" rx="7" fill="#C7D2FE"/>
<rect x="84" y="216" width="340" height="10" rx="5" fill="#6366F1" fill-opacity="0.6"/>
<rect x="64" y="276" width="504" height="120" rx="16" fill="#0F172A" stroke="#312E81"/>
<rect x="84" y="302" width="240" height="12" rx="6" fill="#A5B4FC"/>
<rect x="84" y="326" width="420" height="10" rx="5" fill="#475569"/>
<rect x="84" y="346" width="390" height="10" rx="5" fill="#475569"/>
<rect x="64" y="416" width="504" height="236" rx="16" fill="#020617" stroke="#1E293B"/>
<rect x="84" y="448" width="140" height="80" rx="12" fill="#312E81"/>
<rect x="238" y="448" width="140" height="80" rx="12" fill="#1D4ED8"/>
<rect x="392" y="448" width="140" height="80" rx="12" fill="#0EA5E9"/>
<rect x="624" y="136" width="540" height="548" rx="24" fill="#111827" stroke="#334155"/>
<rect x="652" y="172" width="484" height="40" rx="10" fill="#1E293B"/>
<rect x="652" y="228" width="484" height="430" rx="18" fill="#0F172A"/>
<rect x="672" y="250" width="320" height="16" rx="8" fill="#818CF8"/>
<rect x="672" y="278" width="430" height="10" rx="5" fill="#475569"/>
<rect x="672" y="310" width="460" height="86" rx="14" fill="#312E81"/>
<rect x="692" y="336" width="210" height="12" rx="6" fill="#C7D2FE"/>
<rect x="692" y="358" width="400" height="10" rx="5" fill="#A5B4FC"/>
<rect x="672" y="412" width="220" height="44" rx="12" fill="#1D4ED8"/>
<rect x="904" y="412" width="228" height="44" rx="12" fill="#0EA5E9"/>
</svg>
