<svg width="1200" height="720" viewBox="0 0 1200 720" fill="none" xmlns="http://www.w3.org/2000/svg">
  <defs>
    <linearGradient id="bg" x1="80" y1="40" x2="1120" y2="680" gradientUnits="userSpaceOnUse">
      <stop stop-color="#0B102A"/>
      <stop offset="1" stop-color="#111B46"/>
    </linearGradient>
    <linearGradient id="ai" x1="0" y1="0" x2="1" y2="1">
      <stop stop-color="#7C3AED"/>
      <stop offset="1" stop-color="#22D3EE"/>
    </linearGradient>
    <filter id="softGlow" x="-20%" y="-20%" width="140%" height="140%">
      <feGaussianBlur stdDeviation="14" result="blur"/>
      <feMerge><feMergeNode in="blur"/><feMergeNode in="SourceGraphic"/></feMerge>
    </filter>
  </defs>

  <rect width="1200" height="720" rx="36" fill="url(#bg)"/>

  <g opacity="0.35">
    <circle cx="190" cy="120" r="120" fill="#4F46E5">
      <animate attributeName="r" values="110;130;110" dur="8s" repeatCount="indefinite"/>
    </circle>
    <circle cx="1020" cy="620" r="170" fill="#06B6D4">
      <animate attributeName="r" values="170;190;170" dur="9s" repeatCount="indefinite"/>
    </circle>
  </g>

  <rect x="44" y="44" width="1112" height="88" rx="18" fill="#172043"/>
  <circle cx="92" cy="88" r="13" fill="#6366F1"/>
  <circle cx="130" cy="88" r="8" fill="#22D3EE" opacity="0.8"/>
  <rect x="166" y="74" width="260" height="12" rx="6" fill="#A5B4FC"/>
  <rect x="166" y="94" width="180" height="10" rx="5" fill="#475569"/>

  <rect x="56" y="156" width="520" height="516" rx="28" fill="#0D1535" stroke="#27366F"/>
  <rect x="78" y="182" width="476" height="188" rx="20" fill="#101B42"/>
  <rect x="98" y="204" width="190" height="16" rx="8" fill="#94A3FF"/>
  <rect x="98" y="230" width="250" height="10" rx="5" fill="#475569"/>
  <rect x="98" y="260" width="436" height="86" rx="14" fill="#1E1B4B"/>

  <g>
    <circle cx="145" cy="304" r="10" fill="#22D3EE"/>
    <rect x="166" y="296" width="260" height="10" rx="5" fill="#A5B4FC"/>
    <rect x="166" y="314" width="180" height="8" rx="4" fill="#64748B"/>
    <animateTransform attributeName="transform" type="translate" values="0 0;0 -2;0 0" dur="2.8s" repeatCount="indefinite"/>
  </g>

  <rect x="78" y="388" width="476" height="262" rx="20" fill="#0A122D" stroke="#25335F"/>
  <rect x="98" y="414" width="130" height="90" rx="14" fill="#312E81"/>
  <rect x="244" y="414" width="130" height="90" rx="14" fill="#1D4ED8"/>
  <rect x="390" y="414" width="144" height="90" rx="14" fill="#0EA5E9"/>

  <g filter="url(#softGlow)">
    <circle cx="316" cy="554" r="56" fill="url(#ai)" opacity="0.95">
      <animate attributeName="r" values="48;58;48" dur="3.5s" repeatCount="indefinite"/>
    </circle>
  </g>
  <path d="M288 552H344" stroke="white" stroke-width="8" stroke-linecap="round"/>
  <path d="M316 524V580" stroke="white" stroke-width="8" stroke-linecap="round"/>

  <rect x="620" y="156" width="524" height="516" rx="28" fill="#0D1535" stroke="#27366F"/>
  <rect x="644" y="182" width="476" height="54" rx="12" fill="#18234A"/>
  <rect x="644" y="252" width="476" height="396" rx="20" fill="#0A122D"/>

  <g>
    <rect x="668" y="278" width="300" height="14" rx="7" fill="#A5B4FC"/>
    <rect x="668" y="302" width="420" height="10" rx="5" fill="#475569"/>
    <rect x="668" y="332" width="452" height="104" rx="16" fill="#312E81"/>
    <rect x="688" y="358" width="164" height="12" rx="6" fill="#E0E7FF"/>
    <rect x="688" y="380" width="248" height="9" rx="4.5" fill="#A5B4FC"/>
  </g>

  <g>
    <rect x="668" y="458" width="210" height="46" rx="12" fill="#1D4ED8"/>
    <rect x="890" y="458" width="230" height="46" rx="12" fill="#0EA5E9"/>
    <rect x="668" y="522" width="452" height="102" rx="16" fill="#131E43"/>
    <path d="M706 598L756 560L810 585L862 548L910 574L972 530L1042 570" stroke="url(#ai)" stroke-width="6" stroke-linecap="round" stroke-linejoin="round">
      <animate attributeName="d" dur="6s" repeatCount="indefinite"
      values="M706 598L756 560L810 585L862 548L910 574L972 530L1042 570;
              M706 584L756 574L810 552L862 570L910 545L972 562L1042 540;
              M706 598L756 560L810 585L862 548L910 574L972 530L1042 570"/>
    </path>
  </g>
</svg>
