<svg width="1200" height="720" viewBox="0 0 1200 720" fill="none" xmlns="http://www.w3.org/2000/svg">
<rect width="1200" height="720" rx="32" fill="#062E2F"/>
<rect x="36" y="36" width="1128" height="76" rx="16" fill="#064E3B"/>
<rect x="62" y="58" width="210" height="14" rx="7" fill="#A7F3D0"/>
<rect x="62" y="80" width="160" height="10" rx="5" fill="#34D399"/>
<rect x="36" y="140" width="1128" height="544" rx="24" fill="#022C22" stroke="#065F46"/>
<rect x="66" y="176" width="1068" height="56" rx="12" fill="#0F766E"/>
<rect x="86" y="198" width="240" height="12" rx="6" fill="#CCFBF1"/>
<rect x="66" y="250" width="1068" height="404" rx="16" fill="#052E2B"/>
<line x1="66" y1="330" x2="1134" y2="330" stroke="#115E59"/>
<line x1="66" y1="410" x2="1134" y2="410" stroke="#115E59"/>
<line x1="66" y1="490" x2="1134" y2="490" stroke="#115E59"/>
<line x1="66" y1="570" x2="1134" y2="570" stroke="#115E59"/>
<line x1="245" y1="250" x2="245" y2="654" stroke="#115E59"/>
<line x1="424" y1="250" x2="424" y2="654" stroke="#115E59"/>
<line x1="603" y1="250" x2="603" y2="654" stroke="#115E59"/>
<line x1="782" y1="250" x2="782" y2="654" stroke="#115E59"/>
<line x1="961" y1="250" x2="961" y2="654" stroke="#115E59"/>
<rect x="262" y="348" width="145" height="46" rx="10" fill="#10B981"/>
<rect x="620" y="430" width="145" height="46" rx="10" fill="#14B8A6"/>
<rect x="799" y="510" width="145" height="46" rx="10" fill="#2DD4BF"/>
<rect x="441" y="590" width="145" height="46" rx="10" fill="#34D399"/>
</svg>
