<svg width="1200" height="720" viewBox="0 0 1200 720" fill="none" xmlns="http://www.w3.org/2000/svg">
  <defs>
    <linearGradient id="bgC" x1="120" y1="20" x2="1100" y2="710" gradientUnits="userSpaceOnUse">
      <stop stop-color="#27135D"/>
      <stop offset="1" stop-color="#4C1D95"/>
    </linearGradient>
    <linearGradient id="pulse" x1="0" y1="0" x2="1" y2="1">
      <stop stop-color="#C4B5FD"/>
      <stop offset="1" stop-color="#8B5CF6"/>
    </linearGradient>
  </defs>

  <rect width="1200" height="720" rx="36" fill="url(#bgC)"/>
  <rect x="42" y="42" width="1116" height="84" rx="18" fill="#37207A"/>
  <rect x="70" y="66" width="220" height="14" rx="7" fill="#E9D5FF"/>
  <rect x="70" y="88" width="180" height="10" rx="5" fill="#C4B5FD"/>

  <rect x="42" y="146" width="350" height="532" rx="28" fill="#2A0F52" stroke="#5B2BB8"/>
  <rect x="66" y="178" width="302" height="46" rx="10" fill="#5B21B6"/>
  <rect x="66" y="240" width="302" height="46" rx="10" fill="#5B21B6"/>
  <rect x="66" y="302" width="302" height="46" rx="10" fill="#5B21B6"/>
  <rect x="66" y="364" width="302" height="46" rx="10" fill="#5B21B6"/>
  <rect x="66" y="426" width="302" height="46" rx="10" fill="#5B21B6"/>

  <rect x="420" y="146" width="738" height="532" rx="28" fill="#2E1065" stroke="#6D28D9"/>
  <rect x="446" y="178" width="686" height="154" rx="18" fill="#5B21B6"/>
  <rect x="472" y="208" width="240" height="14" rx="7" fill="#F5F3FF"/>
  <rect x="472" y="232" width="580" height="10" rx="5" fill="#DDD6FE"/>

  <rect x="446" y="350" width="336" height="304" rx="18" fill="#3B1C78"/>
  <rect x="468" y="380" width="290" height="12" rx="6" fill="#E9D5FF"/>
  <rect x="468" y="404" width="220" height="10" rx="5" fill="#C4B5FD"/>
  <rect x="446" y="440" width="336" height="94" rx="14" fill="#7C3AED"/>
  <rect x="446" y="548" width="336" height="94" rx="14" fill="#8B5CF6"/>

  <rect x="802" y="350" width="330" height="304" rx="18" fill="#3B1C78"/>
  <rect x="824" y="380" width="286" height="12" rx="6" fill="#E9D5FF"/>
  <rect x="824" y="404" width="216" height="10" rx="5" fill="#C4B5FD"/>

  <g>
    <circle cx="872" cy="492" r="30" fill="url(#pulse)">
      <animate attributeName="r" values="26;32;26" dur="2.8s" repeatCount="indefinite"/>
    </circle>
    <circle cx="968" cy="492" r="30" fill="#A78BFA">
      <animate attributeName="r" values="30;24;30" dur="3.2s" repeatCount="indefinite"/>
    </circle>
    <circle cx="1064" cy="492" r="30" fill="#8B5CF6">
      <animate attributeName="r" values="28;34;28" dur="3.6s" repeatCount="indefinite"/>
    </circle>
  </g>

  <path d="M872 492L968 492L1064 492" stroke="#E9D5FF" stroke-width="5" stroke-linecap="round" stroke-dasharray="8 10">
    <animate attributeName="stroke-dashoffset" values="0;-72" dur="2.2s" repeatCount="indefinite"/>
  </path>

  <rect x="824" y="550" width="286" height="16" rx="8" fill="#E9D5FF"/>
  <rect x="824" y="576" width="248" height="10" rx="5" fill="#C4B5FD"/>

  <g opacity="0.75">
    <path d="M1014 90C1014 78 1023 69 1035 69C1047 69 1056 78 1056 90V108H1014V90Z" fill="#C084FC"/>
    <path d="M1028 102L1036 110L1050 94" stroke="#1E1B4B" stroke-width="5" stroke-linecap="round" stroke-linejoin="round"/>
  </g>
</svg>
