<svg width="1200" height="720" viewBox="0 0 1200 720" fill="none" xmlns="http://www.w3.org/2000/svg">
<rect width="1200" height="720" rx="32" fill="#1E1B4B"/>
<rect x="36" y="36" width="1128" height="76" rx="16" fill="#312E81"/>
<rect x="64" y="58" width="220" height="14" rx="7" fill="#DDD6FE"/>
<rect x="64" y="80" width="180" height="10" rx="5" fill="#A78BFA"/>
<rect x="36" y="140" width="350" height="544" rx="24" fill="#2E1065"/>
<rect x="60" y="174" width="302" height="46" rx="10" fill="#4C1D95"/>
<rect x="60" y="236" width="302" height="46" rx="10" fill="#4C1D95"/>
<rect x="60" y="298" width="302" height="46" rx="10" fill="#4C1D95"/>
<rect x="60" y="360" width="302" height="46" rx="10" fill="#4C1D95"/>
<rect x="60" y="422" width="302" height="46" rx="10" fill="#4C1D95"/>
<rect x="414" y="140" width="750" height="544" rx="24" fill="#2A0F52"/>
<rect x="442" y="176" width="694" height="150" rx="16" fill="#4C1D95"/>
<rect x="466" y="206" width="240" height="14" rx="7" fill="#EDE9FE"/>
<rect x="466" y="230" width="580" height="10" rx="5" fill="#C4B5FD"/>
<rect x="442" y="346" width="336" height="308" rx="16" fill="#312E81"/>
<rect x="464" y="376" width="290" height="12" rx="6" fill="#DDD6FE"/>
<rect x="464" y="400" width="240" height="10" rx="5" fill="#A78BFA"/>
<rect x="442" y="438" width="336" height="90" rx="14" fill="#6D28D9"/>
<rect x="442" y="544" width="336" height="90" rx="14" fill="#7C3AED"/>
<rect x="800" y="346" width="336" height="308" rx="16" fill="#312E81"/>
<rect x="822" y="376" width="290" height="12" rx="6" fill="#DDD6FE"/>
<rect x="822" y="400" width="220" height="10" rx="5" fill="#A78BFA"/>
<circle cx="872" cy="486" r="28" fill="#C4B5FD"/>
<circle cx="968" cy="486" r="28" fill="#A78BFA"/>
<circle cx="1064" cy="486" r="28" fill="#8B5CF6"/>
<rect x="822" y="546" width="290" height="16" rx="8" fill="#DDD6FE"/>
<rect x="822" y="572" width="260" height="10" rx="5" fill="#A78BFA"/>
</svg>
